<?xml version="1.0" encoding="UTF-8"?>
<svg id="Layer_1" data-name="Layer 1" xmlns="http://www.w3.org/2000/svg" viewBox="0 0 10.44 18.99">
  <defs>
    <style>
      .cls-1 {
        fill: #5f6368;
      }
    </style>
  </defs>
  <path class="cls-1" d="M7.71,9.5L.36,2.15C.11,1.9,0,1.6,0,1.26S.14,.63,.39,.38s.55-.38,.89-.38,.64,.13,.89,.38l7.68,7.7c.2,.2,.35,.43,.45,.68s.15,.5,.15,.75-.05,.5-.15,.75-.25,.48-.45,.68l-7.7,7.7c-.25,.25-.54,.37-.88,.36s-.63-.14-.88-.39S.01,18.05,.01,17.71s.13-.64,.38-.89l7.33-7.33Z"/>
</svg>