<?xml version="1.0" encoding="UTF-8"?>
<svg id="Layer_1" data-name="Layer 1" xmlns="http://www.w3.org/2000/svg" viewBox="0 0 10.45 18.96">
  <defs>
    <style>
      .cls-1 {
        fill: #5f6368;
      }
    </style>
  </defs>
  <path class="cls-1" d="M2.73,9.49l7.35,7.35c.25,.25,.37,.54,.36,.88s-.14,.63-.39,.88-.54,.38-.88,.38-.63-.13-.88-.38L.6,10.91c-.2-.2-.35-.43-.45-.68s-.15-.5-.15-.75,.05-.5,.15-.75,.25-.48,.45-.68L8.3,.36C8.55,.11,8.85,0,9.19,0s.64,.14,.89,.39,.38,.54,.38,.88-.13,.63-.38,.88L2.73,9.49Z"/>
</svg>